<?xml version="1.0" standalone="no"?>
<!DOCTYPE svg PUBLIC "-//W3C//DTD SVG 20010904//EN"
 "http://www.w3.org/TR/2001/REC-SVG-20010904/DTD/svg10.dtd">
<svg version="1.0" xmlns="http://www.w3.org/2000/svg"
 width="1000.000000pt" height="1000.000000pt" viewBox="0 0 1000.000000 1000.000000"
 preserveAspectRatio="xMidYMid meet">
<metadata>
Created by potrace 1.14, written by Peter Selinger 2001-2017
</metadata>
<g transform="translate(0.000000,1000.000000) scale(0.100000,-0.100000)"
fill="#000000" stroke="none">
<path d="M3890 9978 c-14 -5 -47 -20 -75 -31 -57 -24 -157 -93 -196 -134 -44
-48 -107 -151 -112 -183 -2 -8 -6 -20 -10 -26 -19 -31 -29 -197 -15 -256 6
-24 10 -51 10 -60 0 -10 3 -18 7 -18 4 0 8 -6 8 -13 0 -16 41 -105 58 -127 36
-46 141 -143 179 -165 42 -24 137 -62 181 -71 19 -4 144 -5 193 -1 12 1 22 5
22 10 0 4 4 6 9 3 13 -8 128 41 179 76 25 17 66 53 93 81 27 28 49 45 49 37 0
-7 3 -11 6 -7 8 7 34 -17 34 -32 0 -6 4 -11 10 -11 5 0 34 -24 64 -52 30 -29
72 -67 93 -85 35 -29 82 -72 170 -155 28 -26 31 -32 20 -51 -7 -12 -14 -24
-17 -27 -11 -11 -26 -108 -24 -152 2 -43 34 -138 47 -138 4 0 5 -4 2 -10 -3
-5 -1 -10 4 -10 6 0 11 -5 11 -10 0 -10 21 -32 67 -70 83 -70 234 -87 334 -38
130 64 199 176 193 313 -3 74 -4 79 -32 137 -24 49 -98 128 -119 128 -7 0 -13
3 -13 8 0 7 -26 19 -85 38 -47 16 -205 3 -205 -16 0 -7 -50 -24 -58 -20 -2 1
-10 -7 -17 -16 -13 -18 -10 -20 -131 93 -13 12 -24 21 -24 19 0 -2 -28 24 -63
58 -35 33 -85 79 -112 101 -78 64 -119 107 -108 114 10 6 27 50 40 102 20 82
8 283 -19 317 -6 6 -7 12 -3 12 4 0 2 6 -4 13 -6 8 -8 17 -4 20 3 4 1 7 -5 7
-7 0 -12 7 -12 15 0 8 -5 15 -12 15 -6 0 -9 3 -5 6 6 7 -71 114 -82 114 -3 0
-19 13 -36 28 -55 52 -186 119 -207 106 -4 -3 -11 1 -14 9 -4 12 -30 15 -122
15 -64 1 -128 -4 -142 -10z"/>
<path d="M7704 9301 c-2 -2 -14 -5 -26 -6 -13 -1 -39 -5 -58 -9 -19 -4 -44 -9
-55 -11 -11 -2 -20 -4 -20 -5 0 -1 -7 -3 -15 -5 -24 -4 -174 -67 -190 -80 -8
-6 -27 -17 -42 -24 -42 -21 -168 -120 -202 -159 -17 -19 -35 -40 -41 -46 -13
-15 -65 -84 -90 -121 -53 -78 -114 -234 -130 -335 -23 -142 -23 -260 -1 -380
13 -67 20 -91 27 -96 5 -3 7 -10 4 -15 -4 -5 -3 -15 2 -21 4 -7 8 -15 9 -18 3
-18 53 -122 89 -188 7 -13 43 -59 79 -104 72 -86 83 -110 60 -132 -7 -8 -18
-25 -24 -38 -5 -13 -16 -32 -22 -42 -58 -89 -98 -158 -98 -166 0 -6 -4 -10
-10 -10 -5 0 -10 -4 -10 -8 0 -5 -32 -60 -70 -123 -39 -63 -73 -121 -77 -129
-4 -8 -26 -45 -50 -83 -24 -37 -43 -72 -43 -77 0 -6 -4 -10 -9 -10 -5 0 -11
-8 -14 -17 -4 -10 -16 -34 -29 -55 -13 -20 -38 -62 -57 -95 -18 -32 -37 -60
-41 -63 -4 -3 -13 -17 -21 -31 -8 -15 -31 -56 -52 -93 -21 -36 -37 -68 -35
-71 2 -4 -5 -11 -14 -16 -10 -6 -18 -16 -18 -24 0 -8 -5 -17 -10 -20 -12 -7
-80 16 -80 27 0 4 -6 8 -13 8 -7 0 -38 12 -68 26 -65 32 -217 94 -241 99 -9 2
-25 8 -36 14 -11 6 -22 7 -26 4 -3 -3 -6 0 -6 7 0 7 -2 11 -6 8 -3 -3 -37 3
-77 13 -40 11 -88 22 -107 25 -19 3 -42 7 -51 10 -18 5 -78 14 -209 30 -43 5
-292 6 -355 2 -16 -2 -33 -7 -37 -13 -5 -7 -8 -7 -8 0 0 6 -12 10 -27 9 -16
-1 -28 -3 -28 -4 0 -1 -9 -3 -20 -4 -11 -2 -44 -6 -72 -10 -29 -4 -66 -11 -83
-16 -16 -5 -30 -7 -30 -5 0 3 -10 1 -23 -4 -13 -5 -41 -12 -63 -15 -45 -8 -92
-35 -76 -45 6 -4 19 -25 28 -46 20 -46 18 -40 37 -127 8 -37 18 -72 22 -78 4
-6 2 -17 -5 -25 -7 -8 -7 -15 -1 -19 8 -5 9 -191 1 -191 -1 0 -4 -20 -6 -44
-2 -25 -9 -48 -15 -52 -6 -3 -10 -9 -9 -13 5 -22 -16 -67 -51 -106 -23 -25
-57 -65 -77 -90 -20 -25 -43 -52 -52 -61 -34 -37 -60 -70 -60 -78 0 -5 -9 -13
-20 -16 -11 -3 -20 -11 -20 -16 0 -10 -32 -49 -74 -91 -16 -15 -26 -28 -22
-28 4 0 -8 -15 -26 -33 -18 -19 -43 -47 -55 -63 -28 -35 -25 -38 100 -70 49
-12 91 -25 94 -27 2 -3 0 -14 -6 -25 -5 -10 -12 -31 -15 -45 -4 -25 -10 -39
-60 -149 -14 -31 -26 -63 -26 -70 0 -8 -5 -19 -12 -26 -7 -7 -8 -12 -4 -12 5
0 4 -6 -2 -12 -12 -15 -57 -163 -61 -200 -1 -4 -11 -5 -23 -3 -13 2 -45 6 -73
9 -72 9 -203 31 -250 42 -11 3 -33 7 -50 10 -16 3 -39 9 -50 14 -11 5 -29 10
-39 12 -19 3 -39 53 -52 127 -3 18 -8 43 -10 55 -5 21 -8 41 -20 131 -12 88
-10 323 3 336 8 8 26 6 68 -10 66 -25 78 -21 126 41 18 24 40 50 48 59 9 9 28
32 43 51 16 19 43 51 60 70 18 19 44 50 58 68 14 18 33 42 43 54 64 74 116
133 142 161 17 18 37 43 45 55 8 12 25 33 38 47 13 14 22 29 20 35 -5 14 -139
57 -157 50 -19 -7 -51 -39 -51 -52 0 -5 -6 -13 -12 -17 -7 -4 -29 -28 -49 -53
-20 -25 -49 -59 -65 -77 -16 -17 -42 -48 -59 -68 -16 -21 -40 -48 -52 -62 -13
-13 -23 -29 -23 -34 0 -6 -4 -7 -10 -4 -5 3 -10 1 -10 -5 0 -6 -6 -17 -12 -24
-7 -7 -33 -37 -58 -66 -25 -29 -55 -64 -67 -78 -13 -14 -23 -29 -23 -34 0 -5
-4 -7 -9 -4 -5 4 -12 0 -15 -6 -3 -7 -4 4 -3 25 0 20 4 37 7 37 3 0 6 15 7 32
3 39 21 86 43 109 8 9 38 43 65 75 28 32 58 66 68 76 9 10 17 20 17 23 0 2 12
18 27 34 16 17 42 47 60 68 18 21 48 56 68 78 40 45 64 82 46 71 -6 -4 -11 -2
-11 3 0 6 -6 11 -13 11 -7 0 -32 9 -55 20 -38 18 -45 19 -70 6 -15 -8 -40 -26
-55 -40 -15 -14 -32 -26 -36 -26 -5 0 -12 -7 -15 -16 -4 -9 -9 -14 -12 -11 -3
3 -18 -7 -33 -21 -110 -104 -129 -125 -134 -145 -2 -12 -21 -76 -40 -142 -32
-106 -50 -176 -63 -240 -2 -11 -6 -31 -9 -45 -5 -26 -12 -76 -21 -145 -6 -55
-6 -265 1 -292 10 -43 13 -60 19 -98 3 -20 11 -45 16 -56 6 -10 8 -19 4 -19
-3 0 -1 -7 6 -15 10 -12 10 -19 2 -27 -8 -8 -12 -9 -12 -1 0 6 -12 14 -26 17
-15 4 -24 10 -20 13 3 4 -5 13 -18 22 -64 42 -106 78 -112 94 -3 9 -9 15 -13
13 -16 -10 -150 204 -151 241 0 29 -21 21 -36 -14 -32 -75 -86 -229 -89 -253
-1 -14 -8 -37 -14 -52 -6 -16 -8 -28 -6 -28 3 0 -1 -16 -9 -35 -8 -19 -13 -35
-10 -35 3 0 0 -9 -6 -19 -9 -17 -50 -26 -50 -11 0 3 -37 6 -83 7 -194 4 -277
8 -277 16 0 4 -8 3 -19 -2 -10 -6 -21 -8 -24 -5 -3 3 -51 7 -106 9 -55 2 -104
6 -110 9 -5 4 -12 2 -16 -4 -4 -6 -12 -7 -18 -3 -6 4 -28 6 -48 4 -44 -3 -50
5 -55 74 -6 79 -31 189 -61 263 -29 74 -80 170 -100 190 -7 7 -13 17 -13 21 0
19 -201 211 -220 211 -5 0 -10 4 -12 8 -6 15 -194 103 -263 123 -213 60 -429
39 -628 -62 -22 -10 -43 -19 -48 -19 -6 0 -19 -9 -31 -20 -12 -10 -25 -17 -30
-14 -4 3 -8 1 -8 -4 0 -5 -18 -21 -40 -36 -63 -41 -182 -166 -209 -218 -8 -16
-18 -28 -23 -28 -5 0 -7 -4 -3 -9 3 -5 0 -13 -5 -16 -11 -7 -33 -55 -30 -64 1
-2 -3 -7 -9 -10 -6 -4 -12 -16 -14 -26 -2 -11 -8 -29 -14 -40 -10 -20 -24 -66
-29 -95 -1 -8 -5 -26 -9 -40 -32 -130 -26 -269 19 -428 8 -29 19 -58 24 -65 6
-7 11 -15 11 -19 16 -105 194 -331 327 -415 53 -34 207 -103 269 -121 150 -45
319 -47 460 -8 81 23 111 34 180 68 83 42 158 90 186 117 8 9 31 30 50 46 19
17 50 51 69 75 19 25 40 50 46 57 7 7 33 55 59 108 46 94 51 99 100 97 11 -1
70 -4 130 -6 61 -3 155 -8 210 -10 55 -3 141 -7 192 -10 50 -2 96 -7 102 -10
6 -4 11 -2 11 4 0 6 5 8 11 5 17 -11 59 -13 65 -4 3 5 14 4 25 -2 12 -6 18
-13 15 -16 -3 -3 -1 -13 4 -22 5 -10 5 -23 1 -29 -4 -7 -5 -33 -1 -58 4 -24 3
-47 -2 -50 -4 -3 -6 -9 -3 -14 3 -5 8 -48 11 -97 2 -48 7 -100 9 -115 3 -16 7
-40 10 -55 2 -16 7 -44 10 -63 4 -19 8 -44 10 -55 5 -32 25 -119 32 -135 3 -8
7 -28 9 -44 2 -16 9 -35 15 -43 6 -7 9 -13 6 -13 -6 0 25 -93 50 -150 41 -95
119 -256 128 -266 6 -6 19 -30 29 -53 11 -22 23 -41 28 -41 4 0 8 -5 8 -11 0
-14 71 -116 107 -154 7 -8 13 -16 13 -19 0 -6 25 -39 53 -68 9 -10 17 -20 17
-22 0 -8 214 -220 266 -264 56 -46 201 -152 209 -152 3 0 28 -16 55 -35 27
-19 54 -35 59 -35 5 0 14 -7 21 -15 7 -9 15 -13 18 -11 2 3 21 -6 42 -19 21
-13 41 -21 44 -18 3 4 6 2 6 -4 0 -6 10 -14 22 -18 13 -4 25 -8 28 -9 3 -2 18
-8 35 -15 16 -7 46 -19 65 -28 19 -8 44 -19 55 -24 32 -13 178 -60 202 -65 12
-2 34 -9 48 -14 14 -5 29 -9 33 -9 4 1 9 0 12 -1 14 -5 82 -18 135 -25 22 -2
53 -7 69 -10 84 -16 371 -26 398 -13 10 5 19 4 23 -2 4 -6 12 -7 18 -3 7 4 32
9 57 10 25 1 45 2 45 3 0 1 11 3 25 5 53 6 114 16 179 30 40 8 185 45 201 52
29 12 71 12 69 0 -1 -7 8 -34 21 -62 13 -27 21 -50 19 -50 -2 0 6 -14 18 -31
12 -17 20 -34 16 -38 -3 -3 0 -6 7 -6 7 0 11 -3 8 -6 -4 -3 39 -96 95 -207 55
-111 100 -203 99 -204 -1 -2 14 -32 33 -68 19 -35 35 -70 35 -78 0 -8 -23 -33
-51 -57 -28 -23 -63 -60 -79 -81 -15 -21 -30 -35 -34 -32 -3 3 -6 -1 -6 -10 0
-9 -4 -17 -9 -17 -5 0 -16 -15 -25 -32 -9 -18 -29 -56 -44 -84 -16 -28 -26
-56 -24 -62 2 -7 -1 -12 -7 -12 -6 0 -10 -3 -9 -7 1 -9 -10 -58 -19 -83 -10
-26 -25 -168 -24 -220 5 -160 66 -340 154 -453 58 -75 160 -172 208 -197 13
-7 26 -16 29 -19 10 -13 159 -82 179 -84 12 -1 21 -5 21 -10 0 -5 6 -7 13 -4
6 2 20 0 29 -4 44 -23 270 -28 343 -8 22 7 49 13 60 14 11 1 21 4 23 5 1 1 5
3 10 4 4 1 24 10 46 19 21 9 42 17 47 17 5 0 9 5 9 11 0 5 4 8 9 5 11 -7 144
82 202 136 25 24 59 61 75 83 16 22 32 42 36 45 12 9 99 180 92 180 -4 0 -1 7
6 15 7 8 10 15 6 15 -3 0 -1 12 5 28 7 15 13 38 14 52 2 14 4 25 5 25 5 0 12
88 13 150 0 75 -8 146 -25 210 -5 22 -10 42 -10 45 0 3 -4 11 -10 18 -6 6 -8
12 -5 12 9 0 -71 149 -101 190 -68 90 -107 129 -207 201 -48 35 -133 79 -146
76 -3 -1 -13 3 -21 10 -16 14 -129 45 -136 38 -3 -3 -11 0 -18 6 -16 13 -264
12 -294 -1 -3 -1 -9 -2 -13 -1 -4 1 -17 -3 -28 -9 -15 -9 -21 -7 -26 7 -4 10
-9 20 -13 23 -3 3 -29 52 -57 110 -28 58 -99 202 -157 321 -58 119 -106 220
-106 225 0 4 -10 18 -22 29 -22 21 -23 21 -71 3 -43 -16 -137 -22 -137 -8 0 3
-10 7 -22 8 -13 1 -50 10 -83 20 -68 21 -87 45 -89 119 0 23 -3 43 -6 43 -3 0
-6 10 -6 23 -3 56 -6 182 -4 187 1 3 3 34 5 70 2 36 6 81 9 100 2 19 5 41 5
48 1 13 51 17 51 4 0 -4 11 -9 26 -10 14 -1 33 -6 42 -11 21 -11 39 3 107 84
55 66 108 126 143 162 12 13 22 27 22 31 0 4 17 26 38 48 20 23 56 63 78 90
23 27 52 60 63 74 12 14 36 42 54 63 18 21 42 49 54 62 26 27 21 55 -8 55 -10
0 -19 4 -19 8 0 4 -12 9 -27 10 -15 1 -32 7 -37 12 -24 24 -59 2 -123 -77 -54
-67 -90 -109 -105 -125 -10 -10 -18 -20 -18 -23 0 -3 -12 -18 -27 -34 -53 -53
-102 -111 -95 -111 3 0 -4 -7 -16 -16 -12 -8 -22 -20 -22 -25 0 -6 -18 -28
-40 -49 -22 -21 -40 -41 -40 -44 0 -3 -18 -24 -41 -48 l-40 -43 6 45 c14 109
30 150 85 210 27 30 63 70 80 88 16 19 30 38 30 42 0 5 6 13 13 17 12 8 106
115 169 193 l37 46 -32 14 c-18 8 -54 23 -82 35 -97 40 -96 39 -80 88 25 80
51 145 63 159 6 8 13 23 15 34 2 10 12 39 24 64 31 70 36 84 34 98 -1 6 4 12
10 12 7 0 10 3 6 6 -3 3 1 23 8 45 8 21 11 39 8 39 -4 0 -2 5 5 12 7 7 12 22
12 35 0 21 11 29 35 23 28 -6 31 -7 83 -27 9 -3 19 -7 22 -7 3 -1 39 -19 80
-40 41 -22 87 -46 103 -53 15 -8 27 -19 27 -24 0 -5 3 -8 8 -7 11 3 82 -43 82
-53 0 -5 6 -9 14 -9 17 0 106 -94 107 -115 2 -19 4 -25 14 -49 4 -10 8 -31 9
-47 1 -16 4 -29 7 -29 3 0 6 -6 6 -12 0 -7 4 -38 8 -68 3 -30 6 -61 6 -67 0
-14 0 -65 0 -115 1 -143 -28 -243 -86 -303 -11 -11 -40 -44 -65 -74 -25 -30
-52 -62 -60 -71 -8 -9 -37 -43 -65 -75 -49 -60 -64 -78 -108 -126 -12 -14 -41
-48 -62 -75 -22 -27 -43 -50 -47 -52 -14 -6 5 -32 23 -32 10 0 38 -6 61 -14
24 -7 62 -19 86 -25 35 -10 42 -16 37 -29 -4 -9 -8 -21 -9 -27 -2 -5 -6 -17
-9 -25 -3 -8 -13 -39 -21 -67 -15 -52 -11 -64 12 -41 7 7 12 8 12 3 0 -5 7 1
16 13 8 12 19 20 23 18 7 -4 42 46 42 59 -1 17 57 167 95 245 17 36 37 82 45
103 7 20 17 37 21 37 4 0 7 3 7 8 -1 4 0 10 1 15 1 4 3 10 5 15 1 4 8 21 15
37 7 17 14 33 15 38 2 4 4 9 5 12 1 3 3 8 5 13 1 4 5 16 9 27 22 58 36 95 35
98 0 2 4 20 19 67 20 65 38 214 36 295 -2 100 -7 159 -13 170 -3 6 -7 19 -8
30 -5 36 -26 110 -34 121 -5 6 -6 14 -2 17 3 4 2 7 -4 7 -17 0 -7 43 10 46 9
1 17 -2 17 -7 0 -5 6 -9 13 -9 25 0 131 -75 192 -136 65 -64 125 -131 125
-138 0 -2 13 -19 29 -38 16 -18 38 -44 49 -58 21 -26 30 -25 36 6 3 11 9 31
15 47 6 15 8 27 5 27 -2 0 0 9 6 20 6 10 13 34 16 52 6 39 9 54 17 93 4 17 9
44 12 60 3 17 7 41 10 55 5 24 13 105 21 190 4 57 4 260 -1 320 -11 137 -20
205 -25 205 -1 0 -3 9 -4 20 -3 21 -12 69 -21 120 -4 16 -10 34 -16 41 -5 6
-6 13 -3 16 10 11 -46 179 -101 303 -12 28 -25 60 -29 73 -4 12 -12 22 -18 22
-6 0 -9 3 -5 6 7 7 -30 86 -45 95 -5 3 -9 8 -8 10 3 9 -15 46 -37 75 -13 17
-23 36 -23 42 0 6 -3 12 -7 14 -5 2 -30 37 -58 78 -27 41 -52 77 -55 80 -3 3
-21 25 -40 50 -19 24 -59 69 -89 100 -29 30 -63 66 -75 80 -12 14 -53 52 -91
85 -144 124 -140 114 -77 180 6 8 12 18 12 23 0 5 9 21 21 36 11 14 18 26 14
26 -3 0 -1 6 5 13 14 16 80 117 80 123 0 2 12 23 27 47 15 23 28 44 28 47 0 3
22 38 48 78 26 40 47 74 47 76 0 2 34 59 75 126 41 67 75 124 75 127 0 3 18
32 40 64 22 33 37 59 33 59 -3 0 3 10 14 23 11 12 35 49 53 82 18 33 39 67 46
76 8 9 11 19 7 22 -3 4 -1 7 5 7 7 0 12 7 12 15 0 8 4 15 10 15 5 0 12 11 16
24 5 23 44 45 44 25 0 -5 11 -9 24 -9 14 0 27 -4 30 -9 3 -4 20 -12 38 -16 18
-4 35 -9 38 -9 5 -2 39 -10 90 -22 14 -3 43 -7 66 -8 22 -2 45 -5 50 -8 29
-16 222 7 333 39 29 8 59 16 65 17 6 1 26 10 43 19 18 10 35 17 38 17 7 -1
138 71 145 79 3 3 23 19 45 36 45 33 100 81 124 109 9 10 31 34 48 55 18 20
33 40 33 45 0 5 6 17 14 25 24 28 83 145 109 217 59 166 72 313 43 521 -7 50
-52 185 -78 231 -10 18 -18 39 -18 47 0 8 -4 15 -10 15 -5 0 -10 5 -10 12 0 6
-11 26 -26 45 -14 18 -23 33 -20 33 12 0 -174 194 -206 215 -8 6 -33 22 -54
36 -84 56 -259 138 -309 145 -5 0 -12 2 -15 3 -35 16 -323 35 -336 22z m-2887
-2758 c93 -43 212 -135 280 -216 22 -26 54 -82 53 -92 0 -3 6 -13 15 -21 8 -9
15 -23 15 -33 0 -10 3 -21 7 -25 4 -3 8 -14 9 -24 1 -9 5 -28 8 -42 9 -38 6
-215 -4 -215 -1 0 -3 -9 -5 -21 -5 -25 -68 -224 -90 -284 -9 -25 -18 -52 -20
-60 -2 -8 -4 -17 -5 -20 -1 -3 -2 -8 -1 -12 0 -5 -4 -8 -9 -8 -6 0 -10 -6 -10
-12 0 -7 -22 -64 -49 -126 -27 -62 -50 -115 -50 -117 0 -3 -8 -19 -16 -35 -8
-16 -15 -31 -15 -32 1 -2 -6 -20 -14 -40 -9 -21 -16 -42 -16 -48 0 -5 -5 -10
-11 -10 -5 0 -8 -4 -5 -8 3 -5 -2 -21 -9 -36 -8 -16 -13 -32 -10 -36 3 -5 1
-10 -5 -12 -5 -1 -11 -12 -13 -23 -2 -11 -8 -30 -15 -42 -7 -12 -12 -29 -12
-37 0 -9 -4 -16 -8 -16 -5 0 -9 -6 -9 -12 -2 -23 -47 -143 -55 -146 -5 -2 -6
-7 -3 -11 2 -4 -5 -36 -15 -71 -11 -35 -22 -80 -25 -98 -3 -19 -8 -38 -11 -43
-3 -5 -7 -19 -10 -31 -7 -38 -16 -82 -19 -103 -2 -11 -6 -33 -10 -50 -23 -106
-28 -348 -10 -440 21 -104 23 -114 30 -125 3 -5 8 -19 10 -29 3 -15 -1 -18
-13 -14 -67 24 -203 153 -268 253 -37 58 -80 160 -90 215 -1 11 -6 34 -10 50
-8 33 -9 290 -1 345 14 90 18 111 32 166 9 32 18 70 21 84 5 22 70 194 94 245
14 31 43 99 44 105 1 3 6 12 11 20 5 8 11 24 12 35 2 10 7 22 11 25 7 4 21 30
27 50 1 3 24 52 52 110 27 58 58 128 68 155 10 28 22 55 27 61 4 6 9 19 11 30
1 10 5 24 8 29 6 10 30 79 35 100 2 6 12 42 24 80 11 39 22 79 24 90 29 153
32 191 30 306 -2 63 -5 121 -7 129 -2 8 -7 33 -12 55 -4 22 -11 45 -16 50 -4
6 -10 22 -13 35 -3 14 -8 35 -12 48 -8 27 -5 27 43 5z m628 -1014 c44 -22 87
-47 96 -55 8 -8 19 -14 23 -14 9 0 78 -51 88 -65 4 -5 8 -6 8 -1 0 4 24 -16
53 -45 46 -47 56 -65 80 -145 16 -50 30 -106 33 -125 11 -67 10 -216 -2 -280
-22 -122 -29 -143 -57 -171 -7 -7 -27 -32 -44 -55 -17 -23 -33 -39 -37 -36 -3
3 -6 2 -6 -3 0 -11 -30 -51 -75 -99 -16 -18 -48 -54 -70 -81 -22 -26 -45 -52
-50 -58 -6 -6 -28 -33 -50 -60 -22 -28 -54 -64 -71 -81 -42 -42 -48 -61 -21
-70 35 -11 51 -15 72 -18 12 -2 25 -6 30 -9 6 -3 27 -8 48 -12 30 -6 37 -11
37 -30 0 -12 -3 -26 -7 -30 -4 -3 -8 -16 -10 -27 -2 -11 -10 -36 -19 -57 -10
-20 -18 -41 -20 -47 -1 -5 -14 -36 -28 -67 -14 -32 -24 -58 -21 -58 3 0 -4
-17 -14 -37 -11 -21 -30 -76 -42 -122 l-23 -84 -65 7 c-84 8 -126 15 -175 27
-21 6 -40 8 -43 5 -3 -3 -13 -1 -22 3 -9 5 -29 11 -46 14 -16 3 -41 9 -55 12
-14 4 -37 9 -52 12 -30 6 -52 33 -62 78 -11 51 -16 74 -20 98 -3 12 -7 33 -11
47 -5 24 -11 69 -20 155 -5 44 -6 190 -1 245 3 42 24 46 97 20 54 -20 55 -19
109 49 14 18 42 51 62 74 21 23 38 46 38 50 0 5 5 5 10 2 6 -3 10 0 10 7 0 7
15 29 33 49 37 43 65 75 127 149 25 30 52 61 60 70 8 9 39 45 69 81 30 35 60
69 66 74 6 6 14 17 17 26 7 17 -3 22 -114 60 l-37 13 -45 -49 c-25 -27 -43
-51 -42 -53 2 -1 -17 -25 -43 -52 -25 -27 -50 -55 -56 -62 -11 -14 -120 -141
-148 -173 -10 -11 -28 -33 -40 -48 -12 -16 -35 -43 -52 -60 -16 -18 -30 -34
-30 -37 0 -3 -15 -21 -34 -40 -19 -19 -31 -29 -27 -22 4 6 3 12 -2 12 -9 0 26
161 37 170 3 3 22 25 41 50 19 25 51 63 71 85 20 22 50 56 65 75 16 19 34 40
40 45 7 6 25 29 42 52 16 23 32 39 36 36 3 -3 6 -1 6 6 0 7 16 28 35 48 19 20
35 39 35 43 0 8 -17 16 -121 60 l-77 32 10 36 c6 21 21 61 34 90 13 29 24 57
24 62 0 6 4 18 9 28 11 21 53 123 56 137 1 5 5 19 9 30 5 11 15 38 23 60 8 22
17 51 19 65 8 42 16 65 27 72 13 8 118 -31 222 -83z m620 -313 c96 -74 205
-214 205 -265 0 -9 4 -21 9 -26 5 -6 12 -30 15 -53 2 -24 7 -46 10 -49 3 -4 1
-12 -5 -20 -6 -7 -8 -13 -3 -13 5 0 8 -26 7 -57 -1 -32 -2 -58 -3 -58 -1 0 -3
-9 -5 -20 -2 -11 -6 -33 -9 -50 -3 -16 -6 -33 -6 -38 0 -4 -7 -21 -15 -37 -9
-17 -13 -30 -10 -30 4 0 3 -6 -2 -12 -4 -7 -8 -19 -9 -25 -2 -12 -36 -104 -65
-178 -7 -16 -13 -35 -14 -40 -2 -6 -13 -33 -25 -60 -13 -28 -22 -50 -21 -50 1
0 -12 -34 -29 -75 -43 -105 -45 -108 -75 -175 -15 -33 -36 -82 -46 -110 -11
-27 -24 -59 -29 -70 -5 -11 -19 -49 -31 -85 -12 -36 -26 -69 -31 -74 -4 -6 -8
-20 -8 -31 0 -12 -3 -25 -7 -29 -4 -3 -8 -12 -9 -19 -4 -18 -11 -43 -44 -157
-17 -58 -33 -118 -36 -134 -2 -16 -6 -32 -8 -35 -2 -3 -7 -24 -10 -46 -4 -22
-9 -54 -12 -71 -2 -17 -6 -47 -8 -66 -2 -20 -7 -41 -10 -47 -4 -6 -1 -11 6
-11 9 0 9 -3 2 -8 -11 -8 -12 -241 -1 -277 3 -11 9 -36 12 -55 6 -38 19 -85
30 -113 12 -29 -15 -20 -66 23 -26 22 -50 40 -53 40 -4 0 -29 23 -57 52 -144
147 -213 330 -213 568 1 156 25 283 97 500 17 52 32 97 32 100 3 12 21 51 61
137 24 51 44 97 44 103 0 5 4 10 10 10 5 0 9 3 8 8 -1 4 4 20 10 35 7 16 12
33 12 38 0 5 5 9 12 9 6 0 8 3 5 7 -4 3 -2 12 4 20 6 7 8 13 3 13 -5 0 -4 4 1
8 13 9 45 79 45 97 0 8 5 15 10 15 6 0 10 6 10 13 0 7 11 37 25 65 14 29 25
55 25 58 0 3 6 20 14 37 8 18 22 57 32 87 20 61 20 62 29 105 13 57 13 60 15
60 2 0 6 25 14 70 2 17 5 30 6 30 10 0 21 334 12 350 -4 6 -7 16 -9 24 -6 43
-27 118 -36 129 -5 6 -7 12 -3 12 3 0 1 11 -4 24 -5 13 -6 27 -3 30 8 8 145
-67 198 -108z"/>
<path d="M5573 4803 c-11 -10 -56 -61 -99 -113 -43 -52 -88 -104 -99 -116 -11
-11 -33 -38 -50 -58 -46 -58 -78 -96 -104 -125 -13 -14 -42 -48 -65 -75 -22
-27 -51 -59 -63 -72 -13 -13 -23 -28 -23 -34 0 -5 -4 -10 -9 -10 -5 0 -11 -9
-14 -20 -3 -11 -1 -18 4 -14 5 3 9 1 9 -5 0 -5 15 -13 33 -17 17 -4 37 -9 42
-10 61 -17 72 -15 106 24 19 22 46 55 61 73 14 19 35 44 45 55 10 12 41 47 68
79 28 32 55 63 60 69 6 6 30 36 55 66 25 30 49 60 55 66 5 6 28 32 50 58 22
27 49 58 60 71 38 43 55 65 55 73 0 6 -133 52 -151 52 -4 0 -16 -8 -26 -17z"/>
<path d="M3821 7588 c-13 -4 -27 -6 -32 -2 -5 3 -9 0 -9 -5 0 -6 -8 -11 -18
-11 -24 0 -108 -54 -147 -94 -74 -75 -99 -126 -122 -249 -3 -15 -8 -29 -12
-31 -8 -5 -175 -27 -211 -28 -8 -1 -20 -5 -27 -10 -7 -5 -14 -5 -18 2 -3 6
-11 8 -16 4 -6 -3 -22 -7 -37 -9 -84 -11 -201 -24 -272 -30 -19 -2 -35 -4 -35
-5 0 -1 -15 -3 -34 -5 -19 -2 -44 -6 -56 -9 -12 -3 -30 1 -41 9 -10 8 -16 15
-12 15 4 0 -6 23 -22 50 -17 28 -30 53 -30 55 0 5 -27 39 -52 66 -9 9 -14 20
-11 23 4 3 2 6 -4 6 -6 0 -31 19 -56 43 -24 24 -71 56 -103 73 -33 16 -62 34
-66 39 -4 6 -8 6 -8 1 0 -5 -6 -4 -12 1 -24 19 -146 44 -216 44 -122 0 -294
-56 -379 -124 -41 -32 -140 -138 -153 -164 -8 -15 -17 -30 -20 -33 -11 -11
-43 -81 -43 -95 0 -8 -4 -15 -9 -15 -5 0 -6 -4 -3 -10 3 -5 3 -16 -2 -22 -4
-7 -9 -26 -10 -43 0 -16 -2 -30 -3 -30 -10 0 -14 -105 -6 -165 8 -63 11 -73
19 -87 5 -7 6 -13 3 -13 -7 0 32 -113 42 -120 4 -3 15 -22 26 -42 55 -109 220
-230 373 -275 90 -26 250 -23 338 6 39 13 74 27 80 32 5 5 17 9 27 9 10 0 18
4 18 9 0 5 7 11 15 13 34 7 124 84 175 150 30 38 53 71 50 73 -3 2 2 11 11 21
14 16 33 63 46 109 1 6 7 28 13 50 6 22 12 67 13 100 2 65 10 81 41 82 12 0
39 3 61 6 104 15 153 21 192 21 24 1 43 3 43 6 0 3 15 7 33 9 43 3 131 13 227
26 93 12 146 15 155 8 6 -4 25 -33 44 -64 18 -30 46 -64 62 -75 16 -10 29 -22
29 -26 0 -5 6 -8 14 -8 8 0 16 -3 18 -7 5 -13 100 -52 148 -62 47 -10 112 -9
170 4 45 10 150 62 150 75 0 6 5 10 12 10 18 0 85 79 109 130 29 59 45 141 43
210 -1 30 -3 56 -4 58 -2 1 -3 5 -4 10 -16 59 -28 92 -35 92 -5 0 -11 10 -15
23 -8 33 -93 117 -151 150 -30 17 -78 37 -105 44 -32 8 -158 9 -179 1z"/>
<path d="M4455 6006 c-22 -30 -43 -52 -47 -49 -5 2 -8 0 -8 -6 0 -6 -13 -24
-30 -41 -16 -17 -30 -33 -30 -36 0 -3 -12 -19 -27 -35 -16 -16 -38 -41 -50
-54 -13 -13 -23 -26 -23 -29 0 -2 -16 -22 -36 -43 -20 -21 -59 -66 -87 -100
-28 -35 -55 -63 -60 -63 -6 0 -8 -3 -4 -6 5 -5 -17 -33 -86 -106 -10 -11 -16
-25 -14 -32 3 -7 39 -21 81 -33 l76 -20 26 26 c68 71 121 131 117 135 -3 2 5
9 16 16 12 6 19 15 16 21 -4 5 -2 9 3 9 5 0 20 15 33 34 13 19 27 32 31 30 4
-3 8 0 8 5 0 11 31 50 77 98 12 13 26 29 30 37 7 12 71 87 136 160 39 42 70
86 63 87 -10 2 -20 5 -36 11 -129 45 -129 45 -175 -16z"/>
<path d="M6672 3542 c-18 -18 -30 -32 -27 -32 3 0 -4 -10 -17 -23 -22 -22 -60
-66 -131 -150 -51 -60 -70 -83 -99 -115 -14 -17 -24 -33 -21 -36 4 -3 1 -6 -5
-6 -6 0 -34 -28 -63 -62 -53 -65 -137 -164 -154 -182 -20 -22 -16 -42 10 -44
46 -3 55 -5 55 -12 0 -4 6 -7 13 -8 6 0 26 -3 44 -5 33 -6 51 10 160 139 66
78 111 131 131 153 13 13 35 40 50 59 15 19 37 45 50 58 12 13 22 26 22 29 0
4 6 12 13 19 12 12 94 105 137 156 l22 25 -49 22 c-26 12 -60 22 -75 22 -14 1
-28 6 -30 13 -2 6 -18 -2 -36 -20z"/>
</g>
</svg>
